<svg width="18" height="18" viewBox="0 0 18 18" fill="none" xmlns="http://www.w3.org/2000/svg">
<g clip-path="url(#clip0_1_2)">
<rect x="1" y="12" width="1" height="1" fill="white"/>
<rect x="1" y="17" width="1" height="1" fill="white"/>
<rect x="2" y="8" width="1" height="1" fill="white"/>
<rect x="2" y="12" width="1" height="1" fill="white"/>
<rect x="2" y="17" width="1" height="1" fill="white"/>
<rect x="3" y="12" width="1" height="1" fill="white"/>
<rect x="3" y="17" width="1" height="1" fill="white"/>
<rect x="4" y="4" width="1" height="1" fill="white"/>
<rect x="4" y="9" width="1" height="1" fill="white"/>
<rect x="4" y="10" width="1" height="1" fill="white"/>
<rect x="4" y="11" width="1" height="1" fill="white"/>
<rect x="4" y="12" width="1" height="1" fill="white"/>
<rect x="4" y="17" width="1" height="1" fill="white"/>
<rect x="5" y="3" width="1" height="1" fill="white"/>
<rect x="5" y="4" width="1" height="1" fill="white"/>
<rect x="5" y="17" width="1" height="1" fill="white"/>
<rect x="6" y="3" width="1" height="1" fill="white"/>
<rect x="6" y="6" width="1" height="1" fill="white"/>
<rect x="6" y="7" width="1" height="1" fill="white"/>
<rect x="6" y="8" width="1" height="1" fill="white"/>
<rect x="6" y="9" width="1" height="1" fill="white"/>
<rect x="6" y="10" width="1" height="1" fill="white"/>
<rect x="6" y="11" width="1" height="1" fill="white"/>
<rect x="6" y="12" width="1" height="1" fill="white"/>
<rect x="6" y="14" width="1" height="1" fill="white"/>
<rect x="6" y="17" width="1" height="1" fill="white"/>
<rect x="7" y="3" width="1" height="1" fill="white"/>
<rect x="7" y="14" width="1" height="1" fill="white"/>
<rect x="7" y="17" width="1" height="1" fill="white"/>
<rect x="8" y="3" width="1" height="1" fill="white"/>
<rect x="8" y="14" width="1" height="1" fill="white"/>
<rect x="8" y="17" width="1" height="1" fill="white"/>
<rect x="9" y="3" width="1" height="1" fill="white"/>
<rect x="9" y="10" width="1" height="1" fill="white"/>
<rect x="9" y="11" width="1" height="1" fill="white"/>
<rect x="9" y="12" width="1" height="1" fill="white"/>
<rect x="9" y="13" width="1" height="1" fill="white"/>
<rect x="9" y="14" width="1" height="1" fill="white"/>
<rect x="9" y="17" width="1" height="1" fill="white"/>
<rect x="10" y="11" width="1" height="1" fill="white"/>
<rect x="10" y="17" width="1" height="1" fill="white"/>
<rect x="11" y="5" width="1" height="1" fill="white"/>
<rect x="11" y="7" width="1" height="1" fill="white"/>
<rect x="11" y="8" width="1" height="1" fill="white"/>
<rect x="11" y="9" width="1" height="1" fill="white"/>
<rect x="11" y="11" width="1" height="1" fill="white"/>
<rect x="11" y="17" width="1" height="1" fill="white"/>
<rect x="12" y="7" width="1" height="1" fill="white"/>
<rect x="12" y="9" width="1" height="1" fill="white"/>
<rect x="12" y="11" width="1" height="1" fill="white"/>
<rect x="12" y="17" width="1" height="1" fill="white"/>
<rect x="13" y="5" width="1" height="1" fill="white"/>
<rect x="13" y="7" width="1" height="1" fill="white"/>
<rect x="13" y="8" width="1" height="1" fill="white"/>
<rect x="13" y="9" width="1" height="1" fill="white"/>
<rect x="13" y="10" width="1" height="1" fill="white"/>
<rect x="13" y="11" width="1" height="1" fill="white"/>
<rect x="13" y="17" width="1" height="1" fill="white"/>
<rect x="14" y="11" width="1" height="1" fill="white"/>
<rect x="14" y="17" width="1" height="1" fill="white"/>
<rect x="15" y="3" width="1" height="1" fill="white"/>
<rect x="15" y="4" width="1" height="1" fill="white"/>
<rect x="15" y="5" width="1" height="1" fill="white"/>
<rect x="15" y="6" width="1" height="1" fill="white"/>
<rect x="15" y="7" width="1" height="1" fill="white"/>
<rect x="15" y="8" width="1" height="1" fill="white"/>
<rect x="15" y="9" width="1" height="1" fill="white"/>
<rect x="15" y="10" width="1" height="1" fill="white"/>
<rect x="15" y="11" width="1" height="1" fill="white"/>
<rect x="15" y="17" width="1" height="1" fill="white"/>
<rect x="16" y="17" width="1" height="1" fill="white"/>
<rect x="17" y="1" width="1" height="1" fill="white"/>
<rect x="17" y="2" width="1" height="1" fill="white"/>
<rect x="17" y="3" width="1" height="1" fill="white"/>
<rect x="17" y="5" width="1" height="1" fill="white"/>
<rect x="17" y="6" width="1" height="1" fill="white"/>
<rect x="17" y="7" width="1" height="1" fill="white"/>
<rect x="17" y="8" width="1" height="1" fill="white"/>
<rect x="17" y="9" width="1" height="1" fill="white"/>
<rect x="17" y="10" width="1" height="1" fill="white"/>
<rect x="17" y="11" width="1" height="1" fill="white"/>
<rect x="17" y="13" width="1" height="1" fill="white"/>
<rect x="17" y="14" width="1" height="1" fill="white"/>
<rect x="17" y="15" width="1" height="1" fill="white"/>
<rect x="17" y="16" width="1" height="1" fill="white"/>
<rect x="17" y="17" width="1" height="1" fill="white"/>
<rect width="1" height="1" fill="white"/>
<rect x="1" width="1" height="1" fill="white"/>
<rect x="2" width="1" height="1" fill="white"/>
<rect x="3" width="1" height="1" fill="white"/>
<rect x="4" width="1" height="1" fill="white"/>
<rect x="5" width="1" height="1" fill="white"/>
<rect x="6" width="1" height="1" fill="white"/>
<rect x="7" width="1" height="1" fill="white"/>
<rect x="8" width="1" height="1" fill="white"/>
<rect x="9" width="1" height="1" fill="white"/>
<rect x="10" width="1" height="1" fill="white"/>
<rect x="11" width="1" height="1" fill="white"/>
<rect x="12" width="1" height="1" fill="white"/>
<rect x="13" width="1" height="1" fill="white"/>
<rect x="14" width="1" height="1" fill="white"/>
<rect x="15" width="1" height="1" fill="white"/>
<rect x="16" width="1" height="1" fill="white"/>
<rect x="17" width="1" height="1" fill="white"/>
<rect y="1" width="1" height="1" fill="white"/>
<rect y="2" width="1" height="1" fill="white"/>
<rect y="3" width="1" height="1" fill="white"/>
<rect y="4" width="1" height="1" fill="white"/>
<rect y="5" width="1" height="1" fill="white"/>
<rect y="6" width="1" height="1" fill="white"/>
<rect y="7" width="1" height="1" fill="white"/>
<rect y="9" width="1" height="1" fill="white"/>
<rect y="10" width="1" height="1" fill="white"/>
<rect y="11" width="1" height="1" fill="white"/>
<rect y="12" width="1" height="1" fill="white"/>
<rect y="14" width="1" height="1" fill="white"/>
<rect y="15" width="1" height="1" fill="white"/>
<rect y="16" width="1" height="1" fill="white"/>
<rect y="17" width="1" height="1" fill="white"/>
</g>
<defs>
<clipPath id="clip0_1_2">
<rect width="18" height="18" fill="white"/>
</clipPath>
</defs>
</svg>
